<svg width="1626" height="128" viewBox="0 0 1626 128" fill="none" xmlns="http://www.w3.org/2000/svg">
<rect width="1440" height="128" fill="#EBFCFF"/>
<mask id="mask0_25_1004" style="mask-type:luminance" maskUnits="userSpaceOnUse" x="1381" y="32" width="62" height="63">
<path d="M1382.72 54.1323C1381.77 57.179 1381.29 60.3529 1381.29 63.5448C1381.29 69.3426 1385.87 83.6833 1393.7 88.9723C1397.51 91.5399 1405.11 94.6044 1411.89 94.6044C1418.68 94.6044 1424.91 92.2226 1430.21 88.7818C1433.87 86.4047 1442.29 73.7963 1442.29 63.5436C1442.29 46.3869 1426 32.4817 1411.89 32.4817C1402.57 32.4841 1386.65 41.5795 1382.72 54.1323Z" fill="white"/>
</mask>
<g mask="url(#mask0_25_1004)">
<path d="M1372.36 23.5425H1451.23V103.542H1372.36V23.5425Z" fill="white"/>
</g>
<mask id="mask1_25_1004" style="mask-type:luminance" maskUnits="userSpaceOnUse" x="1381" y="32" width="62" height="63">
<path d="M1402.02 57.7849V63.7543H1408.07V78.3753L1393.95 89.1344C1396.15 90.5128 1398.46 91.7209 1400.46 92.5468C1402.45 93.375 1404.14 93.8282 1405.96 94.1394C1407.64 94.4246 1409.43 94.5843 1411.33 94.5985H1411.83C1413.98 94.5833 1416.13 94.381 1418.25 93.9939C1420.31 93.6102 1422.32 93.0061 1424.25 92.1918C1426.19 91.3653 1428.03 90.3411 1429.75 89.1356L1429.92 88.964L1415.3 78.3765V63.7543H1421.35V57.7849H1402.02ZM1381.54 58.5386C1381.32 59.6757 1381.24 60.4081 1381.18 61.1666C1381.11 61.942 1381.08 62.7196 1381.09 63.4975V63.6513C1381.09 66.7221 1381.55 69.7749 1382.45 72.7124C1383.38 75.7895 1384.77 78.7116 1386.56 81.3843C1388.37 84.0817 1390.58 86.4923 1393.1 88.5357L1393.35 88.7061L1400.5 67.5276L1382.51 54.3334C1382.15 55.7248 1381.82 57.1272 1381.54 58.5386ZM1423.2 67.5252L1430.51 88.6208C1432.69 86.6342 1434.69 84.4311 1436.25 82.2894C1438.98 78.5745 1440.86 74.3007 1441.75 69.7745C1442.36 66.665 1442.51 63.4549 1442.2 60.259C1442.1 59.2624 1441.96 58.271 1441.77 57.288C1441.57 56.2877 1441.32 55.2999 1441.01 54.3299L1423.2 67.5252ZM1401.46 34.5109C1398.41 35.6048 1395.55 37.159 1392.97 39.1196C1390.58 40.9415 1388.49 43.1191 1386.76 45.5764C1385.08 47.9494 1383.77 50.5602 1382.87 53.3218L1382.7 53.7395H1404.72L1411.61 32.4781C1408.11 32.671 1404.63 33.3715 1401.46 34.5109ZM1412.2 32.4793L1419 53.7406H1440.77C1439.61 50.8903 1438.14 48.1606 1436.53 45.8166C1435.04 43.6329 1433.29 41.6366 1431.32 39.8709C1429.58 38.3061 1427.65 36.957 1425.58 35.8527C1423.61 34.8065 1421.52 33.9955 1419.36 33.4366C1417.18 32.8712 1414.95 32.5506 1412.7 32.4805H1412.2V32.4793Z" fill="white"/>
</mask>
<g mask="url(#mask1_25_1004)">
<path d="M1372.15 23.5425H1451.29V103.538H1372.15V23.5425Z" fill="#1D1D1B"/>
</g>
<mask id="mask2_25_1004" style="mask-type:luminance" maskUnits="userSpaceOnUse" x="1456" y="49" width="162" height="29">
<path d="M1456.47 49.558V57.5152H1463.77V77.4051H1472.83V57.5152H1480.12V49.558H1456.47ZM1483.41 49.558V77.4039H1504.62V69.4468H1491.81V66.7963H1504.62V60.1656H1491.81V57.2927H1504.62V49.558H1483.41ZM1547.94 59.729L1550.6 67.4613H1545.07L1547.94 59.729ZM1544.42 49.558L1534.47 74.5334L1526.96 62.8184L1535.58 49.558H1525.41L1520.99 56.8502L1517.01 49.5568H1506.85L1515.91 62.8172L1506.41 77.4039H1516.57L1521.22 69.4468L1526.07 77.4039H1542.65L1544.19 73.2023H1552.15L1553.92 77.4039H1562.98L1551.93 49.558H1544.42ZM1574.44 49.1095H1574.36C1573.04 49.1095 1571.71 49.3166 1570.42 49.7225C1569.08 50.1483 1567.8 50.7806 1566.65 51.5967C1565.47 52.4346 1564.43 53.4551 1563.57 54.6198C1562.72 55.7598 1562.06 57.0261 1561.61 58.3718C1561.17 59.6852 1560.96 61.0258 1560.97 62.5782C1560.98 64.1341 1561.21 65.8971 1561.67 67.5157C1562.14 69.1285 1562.83 70.598 1563.69 71.8818C1564.54 73.1331 1565.58 74.2359 1566.79 75.1452C1569.1 76.92 1572.15 77.811 1575 77.8346C1576.32 77.8591 1577.63 77.6892 1578.89 77.3306C1580.06 77.0008 1581.16 76.4906 1582.17 75.8184C1583.17 75.1451 1584.05 74.3126 1584.79 73.3538C1585.58 72.3138 1586.2 71.1564 1586.64 69.9236C1587.1 68.6185 1587.39 67.1549 1587.48 65.6829H1579.31C1579.25 66.2994 1579.15 66.9099 1579.05 67.3749C1578.94 67.8364 1578.82 68.15 1578.7 68.4138C1578.6 68.6434 1578.48 68.8632 1578.34 69.0705C1577.5 70.2147 1576.65 70.3673 1575.84 70.5022C1574.86 70.6288 1573.81 70.5022 1572.77 69.7556C1572.36 69.4588 1572 69.1077 1571.69 68.712C1571.34 68.2576 1571.04 67.7599 1570.81 67.2306C1570.31 66.142 1570.04 64.6725 1570.03 63.3129C1570.02 62.7047 1570.06 62.0968 1570.15 61.4955C1570.22 60.9791 1570.34 60.4697 1570.49 59.9727C1570.62 59.5511 1570.79 59.1424 1571 58.7516C1571.17 58.4252 1571.37 58.1168 1571.6 57.8311C1572.28 57.0075 1572.99 56.6455 1573.68 56.4846C1574.49 56.3071 1575.55 56.41 1576.61 56.8395C1576.95 56.9803 1577.27 57.1519 1577.55 57.3365C1579.02 58.3765 1579.35 59.497 1579.31 60.601H1587.48C1587.29 59.526 1587.01 58.4689 1586.64 57.4406C1586.33 56.5681 1585.93 55.7271 1585.46 54.9286C1585.06 54.2541 1584.6 53.6183 1584.08 53.0296C1583.17 51.9967 1582.07 51.1433 1580.84 50.5128C1580.23 50.2009 1579.6 49.9432 1578.95 49.7426C1577.57 49.3119 1576.03 49.1072 1574.48 49.1072H1574.44V49.1095ZM1602.74 70.3531C1602.35 70.2273 1601.98 70.0426 1601.65 69.8053C1601.26 69.5323 1600.92 69.2065 1600.63 68.8374C1600.29 68.4013 1600 67.9234 1599.77 67.4152C1599.26 66.3053 1599 64.8594 1598.99 63.4869C1598.99 62.8227 1599.04 62.1593 1599.14 61.5038C1599.24 60.9292 1599.39 60.3645 1599.58 59.8165C1599.75 59.3514 1599.97 58.9055 1600.23 58.4866C1601.32 56.8242 1602.47 56.4159 1603.63 56.3852C1604.03 56.3852 1604.44 56.4503 1604.85 56.5875C1605.29 56.735 1605.71 56.9475 1606.09 57.2182C1606.5 57.5057 1606.89 57.8666 1607.24 58.2996C1607.59 58.7315 1607.9 59.2332 1608.16 59.781C1608.41 60.3277 1608.61 60.9205 1608.74 61.5417C1609 62.8391 1609 64.1757 1608.73 65.4723C1608.61 66.0914 1608.42 66.6941 1608.15 67.2685C1607.9 67.8198 1607.6 68.3097 1607.26 68.7226C1606.21 69.9839 1605.05 70.5259 1603.89 70.5282C1603.5 70.5272 1603.11 70.4682 1602.74 70.3531ZM1603.8 49.1095C1602.4 49.1095 1601.03 49.3213 1599.7 49.7426C1598.35 50.1697 1597.05 50.8134 1595.86 51.676C1594.64 52.5589 1593.57 53.6319 1592.68 54.8541C1591.79 56.1052 1591.09 57.4889 1590.62 58.9551C1589.8 61.5464 1589.66 64.2974 1590.38 66.9821C1590.69 68.15 1591.16 69.3225 1591.8 70.4348C1592.45 71.5699 1593.25 72.6162 1594.16 73.5478C1595.09 74.4849 1596.14 75.2954 1597.23 75.9391C1600.5 77.8346 1604.02 78.289 1607.39 77.4039C1608.53 77.0997 1609.63 76.6449 1610.66 76.0515C1611.75 75.421 1612.76 74.6497 1613.65 73.7572C1614.57 72.8308 1615.37 71.7893 1616.02 70.6584C1616.67 69.5296 1617.17 68.3263 1617.5 67.117C1617.83 65.9066 1618 64.6878 1617.98 63.3449C1617.96 61.9088 1617.73 60.4834 1617.31 59.1101C1616.86 57.6647 1616.18 56.3001 1615.3 55.0671C1614.41 53.8226 1613.32 52.7266 1612.09 51.8191C1609.7 50.0687 1606.82 49.1193 1603.86 49.1072L1603.8 49.1095Z" fill="white"/>
</mask>
<g mask="url(#mask2_25_1004)">
<path d="M1450.26 42.8976H1624.19V84.0512H1450.26V42.8976Z" fill="#1D1D1B"/>
</g>
<mask id="mask3_25_1004" style="mask-type:luminance" maskUnits="userSpaceOnUse" x="1133" y="32" width="24" height="47">
<path d="M1133.33 59.4504C1133.29 61.4504 1134.13 64.2104 1136.38 66.4584C1137.13 67.2109 1137.99 67.846 1138.93 68.3424C1138.27 71.8214 1138.14 75.3795 1138.53 78.8984L1140.68 78.7824C1139.96 75.5423 1139.79 72.2019 1140.2 68.9064C1149.2 72.2704 1163.27 64.5064 1152.34 32.5344C1151.21 46.8104 1133.55 45.8384 1133.33 59.4504Z" fill="white"/>
</mask>
<g mask="url(#mask3_25_1004)">
<path d="M1154.32 18.797L1112.07 46.3328L1142.21 92.5936L1184.47 65.0577L1154.32 18.797Z" fill="url(#paint0_linear_25_1004)"/>
</g>
<mask id="mask4_25_1004" style="mask-type:luminance" maskUnits="userSpaceOnUse" x="1133" y="32" width="20" height="37">
<path d="M1133.33 59.4505C1133.29 61.4505 1134.13 64.2105 1136.38 66.4585C1137.13 67.211 1137.99 67.8461 1138.93 68.3425C1139.37 66.0831 1140.06 63.8772 1140.97 61.7625C1139.51 59.4625 1138 54.9905 1138.08 51.8865C1138.85 54.9043 1140 57.8097 1141.52 60.5305C1142.61 58.3246 1143.85 56.198 1145.24 54.1665C1143.77 51.9505 1143.39 48.3065 1143.42 47.5905C1143.42 47.5905 1143.42 47.5905 1143.44 47.5905C1144.01 49.5574 1144.84 51.4402 1145.91 53.1905C1147.18 51.3462 1148.35 49.4341 1149.41 47.4625C1148.75 46.1025 1148.31 43.9745 1148.35 43.2865C1148.74 44.3463 1149.3 45.3344 1150.01 46.2105C1151.06 44.2067 1151.85 42.0775 1152.36 39.8745C1152.71 37.4509 1152.71 34.9877 1152.33 32.5665C1151.21 46.8105 1133.55 45.8385 1133.33 59.4505Z" fill="white"/>
</mask>
<g mask="url(#mask4_25_1004)">
<path d="M1152.73 32.5186H1133.27V68.3266H1152.73V32.5186Z" fill="url(#paint1_radial_25_1004)"/>
</g>
<mask id="mask5_25_1004" style="mask-type:luminance" maskUnits="userSpaceOnUse" x="1147" y="32" width="24" height="38">
<path d="M1147.07 59.4504C1147.13 62.0982 1148.23 64.6165 1150.13 66.4584C1157.8 74.1224 1178.79 69.6584 1166.1 32.5184C1164.98 46.8104 1147.33 45.8384 1147.09 59.4504" fill="white"/>
</mask>
<g mask="url(#mask5_25_1004)">
<path d="M1178.78 32.5184H1147.04V74.1224H1178.78V32.5184Z" fill="url(#paint2_radial_25_1004)"/>
</g>
<mask id="mask6_25_1004" style="mask-type:luminance" maskUnits="userSpaceOnUse" x="1147" y="46" width="10" height="22">
<path d="M1147.07 59.4505C1147.13 62.0983 1148.23 64.6166 1150.13 66.4585C1150.41 66.7265 1150.69 66.9745 1150.98 67.2105C1154.86 64.0545 1157.43 57.5705 1155.86 46.5265C1151.42 49.6745 1147.2 52.8425 1147.09 59.4505" fill="white"/>
</mask>
<g mask="url(#mask6_25_1004)">
<path d="M1157.41 46.5265H1147.04V67.2105H1157.41V46.5265Z" fill="url(#paint3_radial_25_1004)"/>
</g>
<mask id="mask7_25_1004" style="mask-type:luminance" maskUnits="userSpaceOnUse" x="1160" y="32" width="24" height="38">
<path d="M1160.99 59.4504C1160.95 61.4504 1161.79 64.2104 1164.04 66.4584C1171.71 74.1224 1192.71 69.6584 1180.01 32.5184C1178.88 46.8104 1161.23 45.8384 1160.99 59.4504Z" fill="white"/>
</mask>
<g mask="url(#mask7_25_1004)">
<path d="M1192.71 32.5184H1160.95V74.1224H1192.71V32.5184Z" fill="url(#paint4_radial_25_1004)"/>
</g>
<mask id="mask8_25_1004" style="mask-type:luminance" maskUnits="userSpaceOnUse" x="1160" y="46" width="11" height="22">
<path d="M1160.99 59.4505C1160.95 61.4505 1161.79 64.2105 1164.04 66.4585C1164.28 66.7027 1164.54 66.9337 1164.81 67.1505C1168.63 63.9785 1171.15 57.5505 1169.61 46.6225C1165.21 49.7465 1161.09 52.9145 1160.97 59.4505" fill="white"/>
</mask>
<g mask="url(#mask8_25_1004)">
<path d="M1171.15 46.6225H1160.95V67.1505H1171.15V46.6225Z" fill="url(#paint5_radial_25_1004)"/>
</g>
<path d="M1221.63 87.2945C1222.79 86.9385 1224.83 85.9425 1224.83 83.2585C1224.83 81.1625 1223.17 79.0465 1219.98 79.0465H1213.18V94.3425H1216.33V81.1425H1218.81C1221.21 81.1425 1221.56 82.5665 1221.56 83.4145C1221.56 84.8265 1220.54 85.7105 1218.91 85.7105C1217.85 85.7105 1217.24 86.1105 1217.24 86.8265C1217.24 87.2265 1217.49 87.7305 1218.65 87.9105C1220.1 88.1345 1220.68 89.5425 1221.42 91.3225C1221.42 91.3225 1222.06 92.8305 1222.28 93.3225C1222.5 93.8145 1222.68 94.3745 1223.79 94.3745H1226.24L1225.15 92.0385C1224.07 89.6385 1223.21 88.2225 1221.65 87.3185" fill="#010202"/>
<path d="M1190.63 87.2945C1191.79 86.9385 1193.81 85.9425 1193.81 83.2585C1193.81 81.1625 1192.15 79.0465 1188.96 79.0465H1182.16V94.3425H1185.33V81.1425H1187.81C1190.21 81.1425 1190.56 82.5665 1190.56 83.4145C1190.56 84.8265 1189.55 85.7105 1187.91 85.7105C1186.85 85.7105 1186.24 86.1105 1186.24 86.8265C1186.24 87.2265 1186.49 87.7305 1187.66 87.9105C1189.1 88.1345 1189.68 89.5425 1190.42 91.3225C1190.42 91.3225 1191.06 92.8305 1191.28 93.3225C1191.51 93.8145 1191.68 94.3745 1192.79 94.3745H1195.24L1194.13 92.0145C1193.05 89.6145 1192.19 88.1985 1190.63 87.2945" fill="#010202"/>
<path d="M1150.45 79.0505H1147.3V94.3545H1150.45V79.0505Z" fill="#010202"/>
<path d="M1171.68 87.4945H1179.06V85.4105H1171.68V81.1305H1179.42V79.0505H1168.53V94.3505H1179.58V92.2705H1171.68V87.4945Z" fill="#010202"/>
<path d="M1203.08 79.0505H1196.88V94.3425H1202.63C1208.27 94.3425 1211.37 91.6345 1211.37 86.7145C1211.37 81.9785 1208.2 79.0425 1203.08 79.0425M1200.03 81.1225H1202.56C1206.09 81.1225 1208.11 83.1505 1208.11 86.6905C1208.11 90.2305 1206.05 92.2625 1202.61 92.2625H1200.03V81.1225Z" fill="#010202"/>
<path d="M1234.53 78.8345C1228.87 78.8345 1226.35 82.7825 1226.35 86.6985C1226.35 90.6145 1228.87 94.5665 1234.53 94.5665C1240.19 94.5665 1242.7 90.4865 1242.7 86.6985C1242.7 82.7825 1240.18 78.8345 1234.53 78.8345ZM1234.53 92.0825C1231.41 92.0825 1229.61 90.1185 1229.61 86.6985C1229.61 83.2785 1231.41 81.3185 1234.53 81.3185C1237.66 81.3185 1239.43 83.2785 1239.43 86.6985C1239.43 90.1185 1237.65 92.0825 1234.53 92.0825Z" fill="#010202"/>
<path d="M1162.73 86.0305C1163.85 85.5585 1165.38 84.5545 1165.38 82.5545C1165.38 80.8065 1163.85 79.0505 1160.45 79.0505H1153.89V94.3425H1161.33C1166.1 94.3425 1166.61 91.3345 1166.61 90.0425C1166.61 87.3625 1164.23 86.3785 1162.73 86.0225M1157.04 81.1425H1159.6C1161.45 81.1425 1162.11 82.1505 1162.11 83.0945C1162.11 84.1545 1161.31 85.2945 1159.6 85.2945C1158.53 85.2945 1157.93 85.6945 1157.93 86.3345C1157.93 86.6385 1158.09 87.3625 1159.59 87.3745H1160.31C1162 87.3745 1163.23 88.4145 1163.23 89.8465C1163.23 92.0025 1161.38 92.2825 1159.77 92.2825H1157.04V81.1425Z" fill="#010202"/>
<path d="M1262.56 79.0505H1259.11L1252.93 94.3425H1256.27C1256.27 94.3425 1257.36 91.4625 1257.47 91.1425H1264.67L1265.56 93.2985C1265.64 93.6252 1265.84 93.9113 1266.12 94.1039C1266.39 94.2965 1266.73 94.3827 1267.07 94.3465H1269.37L1262.56 79.0505ZM1258.32 88.8545C1258.48 88.4545 1260.46 83.1985 1260.86 82.1345C1261.29 83.1665 1263.42 88.2145 1263.69 88.8545H1258.32Z" fill="#010202"/>
<path d="M1247.78 92.2705V79.0505H1244.63V94.3545H1252.57L1252.59 92.2705H1247.78Z" fill="#010202"/>
<path d="M971.534 36.8704V68.6287H829.339V69.907H971.534V90.2253H972.812V69.907H1014.03V68.6287H972.812V36.8704H971.534ZM1003.05 41.6061L1013.98 56.3957H1006.71L1012.15 63.7582H1002.91L997.52 56.4658H1001.06L995.654 49.1465H1001.23L995.654 41.6061H1003.05ZM912.489 48.5047C910.19 48.5047 908.509 49.169 907.305 51.4604C907.305 51.1197 907.327 49.348 907.327 48.8768H900.444V63.7851H907.656V54.5295C907.656 53.7884 908.252 53.1918 908.994 53.1918C909.735 53.1918 910.331 53.7884 910.331 54.5295V63.7851H917.429V54.5618L917.44 54.5295C917.44 53.7884 918.037 53.1918 918.778 53.1918C919.519 53.1918 920.115 53.7884 920.115 54.5295V63.7851H927.214V53.0246C927.214 50.1058 925.109 48.5047 922.273 48.5047C920.012 48.5047 918.353 49.151 917.154 51.3526C916.502 49.4998 914.726 48.5047 912.489 48.5047ZM890.925 42.3234V47.2911H898.185V42.3234H890.925ZM890.925 48.9847V63.7851H898.185V48.9847H890.925ZM871.264 48.8768V63.7851H878.476V54.5295C878.476 53.7884 879.072 53.1918 879.813 53.1918C880.555 53.1918 881.151 53.7884 881.151 54.5295V63.7851H888.249V53.0241C888.249 50.1053 886.147 48.5033 883.31 48.5033C881.011 48.5033 879.33 49.1716 878.127 51.463C878.127 51.1223 878.148 49.348 878.148 48.8768H871.264ZM937.586 48.591C937.439 48.5893 937.29 48.5939 937.138 48.5964C927.423 48.7522 928.616 56.1785 928.616 57.2695C928.616 58.3605 929.554 63.8838 938.125 64.0764C942.749 64.1803 944.463 63.1918 944.463 63.1918V59.454C944.151 59.9216 935.529 61.8408 935.633 58.1001H945.558C945.558 56.8216 946.814 48.6959 937.586 48.591ZM937.467 52.0969C938.598 52.0969 939.517 53.3422 939.517 54.8801C939.517 54.9 939.517 54.9196 939.517 54.9394H935.423C935.423 54.9196 935.423 54.9 935.423 54.8801C935.423 53.3422 936.336 52.0969 937.467 52.0969ZM957.785 42.4043V50.7754C957.092 49.8509 955.729 48.5267 953.567 48.5155C950.658 48.5004 946.976 49.6754 946.976 56.5306C946.976 63.3857 950.978 64.1959 953.508 64.1681C956.491 64.1353 957.559 62.7946 958.292 61.2609V63.8013H964.964V42.4043H957.785ZM956.2 52.9707C957.152 52.9707 957.915 53.7641 957.915 54.7506V57.5769C957.915 58.5635 957.152 59.3623 956.2 59.3623C955.247 59.3623 954.479 58.5635 954.479 57.5769V54.7506C954.479 53.7641 955.247 52.9707 956.2 52.9707ZM849.263 43.7582V52.1077V53.6018V55.8402C849.263 60.4682 852.99 64.1951 857.618 64.1951H861.011C865.639 64.1951 869.366 60.4682 869.366 55.8402V53.6018V52.1077V43.7582H861.766V56.5467C861.766 57.8625 860.709 58.9254 859.393 58.9254C858.077 58.9254 857.014 57.8625 857.014 56.5467V43.7582H849.263ZM988.352 41.6061L977.419 56.3957H984.689L979.247 63.7582H988.487L993.88 56.4658H990.337L995.747 49.1465H990.169L995.747 41.6061H988.352Z" fill="#1D1D1B"/>
<path d="M607.836 52.1505H599.1V79.0985H607.836C615.992 79.0985 620.84 75.2385 620.84 65.6225C620.84 56.0065 616 52.1505 607.836 52.1505ZM607.532 75.5425H603.236V55.6745H607.532C613.704 55.6745 616.624 58.4745 616.624 65.6225C616.624 72.7705 613.704 75.5425 607.532 75.5425ZM722.02 52.1505L714.82 65.1545L707.6 52.1505H702.924L712.732 68.4345V79.0985H716.84V68.4345L726.648 52.1505H722.02ZM643.876 69.1425C643.876 72.9465 642.748 75.9425 637.568 75.9425C632.388 75.9425 631.228 72.9425 631.228 69.1425V52.1505H627.096V68.8745C627.096 74.7985 629.328 79.5105 637.568 79.5105C645.808 79.5105 648.036 74.7985 648.036 68.8745V52.1225H643.876V69.1425ZM699.976 59.7545C699.976 54.0225 695.896 52.1225 689.616 52.1225H678.676V79.0705H682.8V67.3585H688.752L695.448 79.0705H700L692.8 67.1665C697.2 66.5065 699.964 64.4665 699.964 59.7545M682.8 63.8865V55.6745H689.6C693.156 55.6745 695.772 56.3385 695.772 59.7545C695.772 63.1705 693.156 63.8585 689.46 63.8585H682.8V63.8865ZM655.632 79.0865H659.74V67.3865H670.568V63.8865H659.748V55.6745H673.304V52.1225H655.64L655.632 79.0865ZM573.916 47.5745H569.756V52.1505H561.356V58.5145C561.352 64.4385 563.6 69.1425 571.824 69.1425C580.048 69.1425 582.292 64.4305 582.292 58.5065V52.1505H573.916V47.5745ZM578.16 55.6745V58.7425C578.16 62.5465 577.032 65.5425 571.852 65.5425C566.672 65.5425 565.484 62.5425 565.484 58.7425V55.6745H569.728V60.2505H573.888V55.6745H578.16Z" fill="#1D1D1B"/>
<path fill-rule="evenodd" clip-rule="evenodd" d="M312.412 72.7825V76.2385H290.82V52.4945H294.704V72.7825H312.412Z" fill="#1D1D1B"/>
<path fill-rule="evenodd" clip-rule="evenodd" d="M309.388 61.1265L313.704 52.9225H309.604L306.364 61.1265H309.388Z" fill="#1D1D1B"/>
<path fill-rule="evenodd" clip-rule="evenodd" d="M344.688 56.3905C343.233 54.1392 341.216 52.3067 338.836 51.0745C336.379 49.8025 333.653 49.1386 330.886 49.1386C328.119 49.1386 325.393 49.8025 322.936 51.0745C320.554 52.3055 318.535 54.1382 317.08 56.3905C315.673 58.5689 314.924 61.1071 314.924 63.7005C314.924 66.2938 315.673 68.8321 317.08 71.0105C318.533 73.2687 320.552 75.107 322.936 76.3425C325.393 77.6145 328.119 78.2783 330.886 78.2783C333.653 78.2783 336.379 77.6145 338.836 76.3425C341.216 75.1102 343.233 73.2778 344.688 71.0265C346.095 68.8481 346.844 66.3098 346.844 63.7165C346.844 61.1231 346.095 58.5849 344.688 56.4065V56.3905ZM341.328 69.5145C340.258 71.2652 338.75 72.7061 336.952 73.6945C335.124 74.6944 333.074 75.2185 330.99 75.2185C328.906 75.2185 326.856 74.6944 325.028 73.6945C323.23 72.7052 321.72 71.2646 320.648 69.5145C319.599 67.7887 319.044 65.808 319.044 63.7885C319.044 61.7689 319.599 59.7882 320.648 58.0625C321.72 56.3124 323.23 54.8718 325.028 53.8825C326.856 52.8826 328.906 52.3585 330.99 52.3585C333.074 52.3585 335.124 52.8826 336.952 53.8825C338.75 54.8708 340.258 56.3117 341.328 58.0625C342.38 59.7873 342.936 61.7684 342.936 63.7885C342.936 65.8086 342.38 67.7897 341.328 69.5145Z" fill="#1D1D1B"/>
<path fill-rule="evenodd" clip-rule="evenodd" d="M373.948 62.7425C373.287 64.0524 372.205 65.1021 370.876 65.7225C370.106 66.1826 369.225 66.4246 368.328 66.4225L375.888 76.2465H371.568L364.26 66.7425H354.728V76.2425H350.84V52.4945H366.4C367.992 52.4621 369.565 52.841 370.968 53.5945C372.462 54.3782 373.604 55.6967 374.168 57.2865C374.737 59.0746 374.659 61.0059 373.948 62.7425ZM369.6 62.5705C370.016 62.2014 370.345 61.7443 370.563 61.2324C370.781 60.7204 370.883 60.1664 370.86 59.6105C370.834 59.0514 370.694 58.5035 370.449 58.0001C370.204 57.4968 369.859 57.0485 369.436 56.6825C368.636 56.0025 367.584 55.9465 366.604 55.9465H354.728V63.2865H366.604C367.652 63.2865 368.78 63.2625 369.6 62.5705Z" fill="#1D1D1B"/>
<path fill-rule="evenodd" clip-rule="evenodd" d="M396.396 62.6385V65.8745H383.228V72.7825H400.932V76.2385H379.34V52.4945H400.932V55.9465H383.228V62.6385H396.396Z" fill="#1D1D1B"/>
<path fill-rule="evenodd" clip-rule="evenodd" d="M396.612 48.8225H390.784L388.408 51.8465L396.612 48.8225Z" fill="#1D1D1B"/>
<path fill-rule="evenodd" clip-rule="evenodd" d="M408.544 70.1945L405.464 76.2385H401.6L413.688 52.4945H417.576L429.668 76.2385H425.76L422.684 70.1945H408.544ZM415.6 56.3105L410.08 67.1705H421.144L415.6 56.3105Z" fill="#1D1D1B"/>
<path fill-rule="evenodd" clip-rule="evenodd" d="M453.18 72.7825V76.2385H431.592V52.4945H435.476V72.7825H453.18Z" fill="#1D1D1B"/>
<path fill-rule="evenodd" clip-rule="evenodd" d="M44.036 35.7625C40.4088 35.7596 36.8172 36.4773 33.4697 37.874C30.1222 39.2707 27.0855 41.3185 24.536 43.8985C19.3599 49.1263 16.4564 56.1857 16.4564 63.5425C16.4564 70.8992 19.3599 77.9587 24.536 83.1865C27.0876 85.7643 30.1249 87.8107 33.4724 89.2073C36.8198 90.6039 40.4109 91.3229 44.038 91.3229C47.6651 91.3229 51.2562 90.6039 54.6036 89.2073C57.9511 87.8107 60.9884 85.7643 63.54 83.1865C68.7141 77.9576 71.6164 70.8986 71.6164 63.5425C71.6164 56.1863 68.7141 49.1273 63.54 43.8985C60.9895 41.3187 57.952 39.2711 54.6039 37.8744C51.2558 36.4778 47.6637 35.7599 44.036 35.7625ZM44.036 57.9705C45.1397 57.9625 46.2209 58.2826 47.1425 58.89C48.064 59.4974 48.7844 60.3649 49.2123 61.3823C49.6402 62.3997 49.7562 63.5213 49.5458 64.6048C49.3353 65.6883 48.8078 66.6848 48.0302 67.4681C47.2525 68.2514 46.2598 68.786 45.1778 69.0043C44.0959 69.2225 42.9735 69.1146 41.953 68.694C40.9326 68.2735 40.06 67.5594 39.4459 66.6422C38.8319 65.7251 38.504 64.6462 38.504 63.5425C38.5014 62.8134 38.6424 62.0909 38.919 61.4163C39.1955 60.7417 39.6023 60.1281 40.116 59.6107C40.6297 59.0933 41.2403 58.6822 41.9129 58.4007C42.5855 58.1193 43.3069 57.9731 44.036 57.9705ZM39.6 46.7425C38.1251 47.1387 36.7099 47.7306 35.392 48.5025C35.5367 47.7364 35.6063 46.958 35.6 46.1785C35.646 43.9724 36.5537 41.8719 38.1289 40.3267C39.704 38.7814 41.8214 37.9142 44.028 37.9105C45.2097 37.913 46.3769 38.1701 47.4503 38.6643C48.5236 39.1585 49.4779 39.8782 50.248 40.7745C50.8842 40.4066 51.5539 40.0999 52.248 39.8585C51.9615 39.4882 51.653 39.1356 51.324 38.8025C52.9672 39.2963 54.5566 39.9542 56.068 40.7665C54.7066 40.747 53.355 41.0003 52.093 41.5114C50.8311 42.0225 49.6842 42.7811 48.72 43.7425C45.144 47.0585 41.452 46.1425 38.156 43.0985C37.7886 43.7877 37.5462 44.5366 37.44 45.3105C38.121 45.8442 38.8432 46.3231 39.6 46.7425ZM29.1 54.8425C28.333 56.1735 27.7465 57.6007 27.356 59.0865C26.9278 58.4329 26.4361 57.8233 25.888 57.2665C22.688 53.9985 22.848 48.6345 26.044 45.4185C26.8752 44.5814 27.8773 43.9337 28.9819 43.5194C30.0864 43.1052 31.2674 42.9344 32.444 43.0185C32.6478 42.3 32.9156 41.6012 33.244 40.9305C32.7824 40.8713 32.3174 40.8419 31.852 40.8425C33.3536 40.0178 34.935 39.3477 36.572 38.8425C35.596 39.7985 34.8196 40.9391 34.2881 42.1977C33.7567 43.4564 33.4806 44.8082 33.476 46.1745C33.276 51.0745 30.032 53.0505 25.556 53.2465C25.7799 53.993 26.1333 54.6943 26.6 55.3185C27.4472 55.2197 28.2856 55.0566 29.108 54.8305L29.1 54.8425ZM27.364 68.0425C27.7591 69.5254 28.3482 70.9497 29.116 72.2785C28.3539 72.1222 27.578 72.0431 26.8 72.0425C22.244 72.0025 18.588 68.1025 18.588 63.5505C18.5885 62.364 18.8425 61.1914 19.333 60.1111C19.8235 59.0308 20.5391 58.0677 21.432 57.2865C21.0679 56.6383 20.7639 55.9581 20.524 55.2545C20.1548 55.5391 19.806 55.8492 19.48 56.1825C19.9671 54.5296 20.6183 52.9296 21.424 51.4065C21.4072 52.7735 21.6616 54.1303 22.1724 55.3984C22.6832 56.6665 23.4403 57.8208 24.4 58.7945C27.692 62.3945 26.8 66.1185 23.764 69.4385C24.446 69.8069 25.1883 70.0508 25.956 70.1585C26.4869 69.4889 26.9643 68.7788 27.384 68.0345L27.364 68.0425ZM35.4 78.5905C36.7162 79.3579 38.1286 79.9471 39.6 80.3425C38.9506 80.7726 38.3463 81.2671 37.796 81.8185C34.548 85.0385 29.224 84.8825 26.032 81.6665C25.1963 80.8226 24.5501 79.8103 24.1362 78.6971C23.7224 77.5839 23.5505 76.3953 23.632 75.2105C22.9195 75.0082 22.2272 74.7404 21.564 74.4105C21.5027 74.8759 21.4733 75.345 21.476 75.8145C20.6605 74.2994 19.9998 72.706 19.504 71.0585C20.4482 72.0425 21.5807 72.8265 22.8341 73.3639C24.0876 73.9013 25.4363 74.181 26.8 74.1865C31.668 74.3905 33.628 77.6585 33.82 82.1865C34.5642 81.9621 35.2619 81.6058 35.88 81.1345C35.7845 80.2818 35.6227 79.4379 35.396 78.6105L35.4 78.5905ZM48.496 80.3425C49.9707 79.9455 51.3858 79.3536 52.704 78.5825C52.5466 79.3499 52.4662 80.1311 52.464 80.9145C52.418 83.1205 51.5103 85.221 49.9352 86.7662C48.36 88.3115 46.2426 89.1788 44.036 89.1825C42.8549 89.1799 41.6883 88.9228 40.6156 88.4285C39.5429 87.9343 38.5894 87.2146 37.82 86.3185C37.1834 86.6856 36.5138 86.9923 35.82 87.2345C36.1032 87.6062 36.4119 87.9577 36.744 88.2865C35.1003 87.7922 33.5109 87.1328 32 86.3185C33.3609 86.3388 34.7121 86.0858 35.9736 85.5747C37.235 85.0635 38.3811 84.3044 39.344 83.3425C42.92 80.0265 46.612 80.9425 49.908 83.9865C50.276 83.2985 50.5197 82.5511 50.628 81.7785C49.9637 81.2415 49.2574 80.7586 48.516 80.3345L48.496 80.3425ZM58.98 72.2465C59.7452 70.9169 60.329 69.4909 60.716 68.0065C61.1442 68.66 61.6359 69.2696 62.184 69.8265C65.384 73.0945 65.224 78.4585 62.032 81.6745C61.2005 82.5111 60.1983 83.1585 59.0939 83.5727C57.9894 83.9869 56.8086 84.158 55.632 84.0745C55.4318 84.7941 55.1639 85.4932 54.832 86.1625C55.295 86.2218 55.7613 86.2512 56.228 86.2505C54.7261 87.0744 53.1447 87.7445 51.508 88.2505C52.4828 87.2936 53.258 86.1529 53.7888 84.8943C54.3195 83.6358 54.5953 82.2844 54.6 80.9185C54.8 76.0185 58.048 74.0425 62.52 73.8465C62.2969 73.1009 61.9434 72.4007 61.476 71.7785C60.6311 71.8707 59.795 72.0312 58.976 72.2585L58.98 72.2465ZM60.708 59.0465C60.3161 57.5631 59.7282 56.1386 58.96 54.8105C59.7221 54.9666 60.498 55.0457 61.276 55.0465C65.828 55.0865 69.484 58.9865 69.484 63.5385C69.4835 64.7249 69.2295 65.8975 68.739 66.9778C68.2485 68.0582 67.5329 69.0212 66.64 69.8025C67.0042 70.4506 67.3081 71.1308 67.548 71.8345C67.9185 71.5499 68.2687 71.2398 68.596 70.9065C68.1093 72.56 67.4566 74.1602 66.648 75.6825C66.6685 74.3155 66.4178 72.958 65.9104 71.6885C65.403 70.4191 64.649 69.2627 63.692 68.2865C60.4 64.6865 61.292 60.9625 64.332 57.6425C63.6497 57.2745 62.9075 57.0307 62.14 56.9225C61.6066 57.591 61.1277 58.3013 60.708 59.0465ZM52.672 48.4865C51.3512 47.7216 49.9349 47.1351 48.46 46.7425C49.1106 46.3123 49.7163 45.8178 50.268 45.2665C53.512 42.0665 58.836 42.2025 62.032 45.4225C62.8688 46.2647 63.5159 47.2761 63.9298 48.3889C64.3438 49.5017 64.515 50.6901 64.432 51.8745C65.1459 52.0766 65.8395 52.3444 66.504 52.6745C66.5633 52.2088 66.5927 51.7399 66.592 51.2705C67.4042 52.7871 68.0647 54.3801 68.564 56.0265C67.6204 55.0469 66.4899 54.2665 65.2395 53.7313C63.9891 53.1961 62.6441 52.917 61.284 52.9105C56.42 52.7065 54.456 49.4385 54.264 44.9105C53.5221 45.1374 52.8261 45.4935 52.208 45.9625C52.3018 46.8137 52.4623 47.6563 52.688 48.4825L52.672 48.4865ZM54.852 52.6425C57.7207 55.5434 59.3297 59.4586 59.3297 63.5385C59.3297 67.6183 57.7207 71.5335 54.852 74.4345C53.4356 75.8626 51.7504 76.9962 49.8937 77.7698C48.037 78.5434 46.0454 78.9417 44.034 78.9417C42.0226 78.9417 40.031 78.5434 38.1743 77.7698C36.3176 76.9962 34.6324 75.8626 33.216 74.4345C30.3482 71.533 28.7399 67.618 28.7399 63.5385C28.7399 59.4589 30.3482 55.5439 33.216 52.6425C34.6318 51.2139 36.3165 50.08 38.173 49.3062C40.0294 48.5323 42.0207 48.1339 44.032 48.1339C46.0433 48.1339 48.0346 48.5323 49.891 49.3062C51.7475 50.08 53.4322 51.2139 54.848 52.6425" fill="#1D1D1B"/>
<path d="M94.364 46.6345H94L79.264 78.6625H83.108L86.788 70.5625H101.94L105.62 78.6625H109.464L94.72 46.6345H94.364ZM94.364 67.0345H88.4L94.372 53.8865L100.348 67.0345H94.364ZM125.752 74.2345C124.659 74.9781 123.377 75.3944 122.056 75.4345C120.076 75.4345 118.976 74.3665 118.976 71.5145V58.7425H126.324V55.8945L118.976 55.9425V49.7505H115.6V55.9425H112.256V58.7425H115.6V72.1505C115.6 76.7825 118.108 78.8305 121.496 78.8305C123.378 78.7622 125.198 78.1433 126.732 77.0505L125.752 74.2345ZM141.568 55.0905C134.704 55.0905 129.82 59.8905 129.82 66.8905C129.82 73.8905 134.704 78.7785 141.568 78.7785C148.432 78.7785 153.316 73.9225 153.316 66.8905C153.316 59.8585 148.432 55.1105 141.568 55.1105V55.0905ZM141.568 58.2505C146.408 58.2505 149.884 61.8145 149.884 66.9345C149.884 72.0545 146.408 75.6585 141.568 75.6585C136.728 75.6585 133.252 72.0985 133.252 66.9345C133.252 61.7705 136.728 58.2705 141.568 58.2705V58.2505ZM160.42 47.4745V78.6625H172.456C179.408 78.6625 183.544 75.5025 183.544 70.2025C183.544 65.9305 180.944 63.0025 176.504 62.3225C180.104 61.5665 182.18 58.9385 182.18 55.2865C182.18 50.3905 178.436 47.4945 172.232 47.4945L160.42 47.4745ZM163.94 50.9025H172.056C176.192 50.9025 178.612 52.6865 178.612 55.8465C178.612 59.0985 176.212 60.9225 172.056 60.9225H163.94V50.9025ZM163.94 64.3065H172.056C177.076 64.3065 179.976 66.3065 179.976 69.6945C179.976 73.2545 177.072 75.2585 172.056 75.2585H163.94V64.3065Z" fill="#1D1D1B"/>
<defs>
<linearGradient id="paint0_linear_25_1004" x1="1134.41" y1="36.4158" x2="1153.29" y2="65.3873" gradientUnits="userSpaceOnUse">
<stop stop-color="#868686"/>
<stop offset="0.03" stop-color="#868686"/>
<stop offset="0.3" stop-color="#919191"/>
<stop offset="0.75" stop-color="#ADADAD"/>
<stop offset="0.8" stop-color="#B1B1B1"/>
<stop offset="1" stop-color="#B1B1B1"/>
</linearGradient>
<radialGradient id="paint1_radial_25_1004" cx="0" cy="0" r="1" gradientUnits="userSpaceOnUse" gradientTransform="translate(1133.3 24.9604) scale(54.3433)">
<stop stop-color="#9C9B9B"/>
<stop offset="0.19" stop-color="#9C9B9B"/>
<stop offset="0.49" stop-color="#A9A9A9"/>
<stop offset="0.77" stop-color="#B1B1B1"/>
<stop offset="1" stop-color="#B1B1B1"/>
</radialGradient>
<radialGradient id="paint2_radial_25_1004" cx="0" cy="0" r="1" gradientUnits="userSpaceOnUse" gradientTransform="translate(1144.36 25.5657) scale(54.1372 54.1372)">
<stop stop-color="#ECECEC"/>
<stop offset="0.3" stop-color="#E8E8E8"/>
<stop offset="0.56" stop-color="#DEDEDD"/>
<stop offset="0.82" stop-color="#CCCCCB"/>
<stop offset="0.89" stop-color="#C6C6C5"/>
<stop offset="1" stop-color="#C6C6C5"/>
</radialGradient>
<radialGradient id="paint3_radial_25_1004" cx="0" cy="0" r="1" gradientUnits="userSpaceOnUse" gradientTransform="translate(1139.34 26.8345) scale(53.872 53.872)">
<stop stop-color="white"/>
<stop offset="0.05" stop-color="#F2F2F2"/>
<stop offset="0.13" stop-color="#E4E4E4"/>
<stop offset="0.22" stop-color="#DCDCDC"/>
<stop offset="0.38" stop-color="#D9D9D9"/>
<stop offset="0.53" stop-color="#D1D1D1"/>
<stop offset="0.8" stop-color="#C6C6C5"/>
<stop offset="1" stop-color="#C6C6C5"/>
</radialGradient>
<radialGradient id="paint4_radial_25_1004" cx="0" cy="0" r="1" gradientUnits="userSpaceOnUse" gradientTransform="translate(1157.25 25.0188) scale(54.1372 54.1372)">
<stop stop-color="#6F6F6E"/>
<stop offset="0.14" stop-color="#6F6F6E"/>
<stop offset="0.21" stop-color="#656564"/>
<stop offset="0.35" stop-color="#5A5A59"/>
<stop offset="0.5" stop-color="#575756"/>
<stop offset="0.95" stop-color="#1D1D1B"/>
<stop offset="1" stop-color="#1D1D1B"/>
</radialGradient>
<radialGradient id="paint5_radial_25_1004" cx="0" cy="0" r="1" gradientUnits="userSpaceOnUse" gradientTransform="translate(1160.6 25.456) scale(54.3194 54.3194)">
<stop stop-color="#6F6F6E"/>
<stop offset="0.01" stop-color="#6D6D6C"/>
<stop offset="0.09" stop-color="#575756"/>
<stop offset="0.19" stop-color="#484847"/>
<stop offset="0.29" stop-color="#3F3F3E"/>
<stop offset="0.45" stop-color="#3C3C3B"/>
<stop offset="0.56" stop-color="#2F2F2E"/>
<stop offset="0.71" stop-color="#222220"/>
<stop offset="0.85" stop-color="#1D1D1B"/>
<stop offset="1" stop-color="#1D1D1B"/>
</radialGradient>
</defs>
</svg>
