<svg width="64" height="64" viewBox="0 0 64 64" fill="none" xmlns="http://www.w3.org/2000/svg">
<g clip-path="url(#clip0_25_537)">
<path d="M43.75 15.136C43.438 15.136 43.23 15.178 43.02 15.23V15.262H43.052C43.198 15.532 43.438 15.742 43.624 15.992C43.77 16.274 43.894 16.564 44.03 16.846L44.072 16.804C44.322 16.626 44.448 16.346 44.448 15.918C44.344 15.792 44.322 15.658 44.23 15.542C44.126 15.364 43.896 15.272 43.75 15.136ZM15.386 50.322H12.918C12.834 46.156 12.584 42.238 12.2 38.562H12.18L8.42 50.322H6.534L2.804 38.562H2.772C2.502 42.082 2.324 46.01 2.252 50.322H0.0019989C0.147999 45.072 0.511999 40.156 1.096 35.572H4.158L7.72 46.406H7.74L11.334 35.572H14.25C14.896 40.948 15.282 45.864 15.396 50.322H15.386ZM26.094 39.438C25.094 44.896 23.76 48.866 22.126 51.334C20.834 53.24 19.428 54.198 17.896 54.198C17.49 54.198 16.99 54.072 16.386 53.822V52.51C16.688 52.552 17.032 52.582 17.418 52.582C18.136 52.582 18.71 52.374 19.148 51.988C19.668 51.508 19.93 50.968 19.93 50.374C19.93 49.958 19.732 49.124 19.316 47.854L16.618 39.438H19.046L20.984 45.73C21.422 47.168 21.61 48.158 21.526 48.73C22.598 45.896 23.338 42.792 23.756 39.438H26.094ZM58.968 50.322H51.948V35.572H54.312V48.51H58.968V50.322ZM50.114 50.678L47.406 49.344C47.646 49.146 47.874 48.928 48.084 48.678C49.24 47.334 49.814 45.324 49.814 42.678C49.814 37.792 47.898 35.356 44.064 35.356C42.188 35.356 40.72 35.97 39.668 37.21C38.522 38.564 37.938 40.564 37.938 43.2C37.938 45.794 38.448 47.69 39.47 48.908C40.408 49.992 41.814 50.544 43.7 50.544C44.398 50.544 45.044 50.46 45.628 50.284L49.16 52.346L50.128 50.68L50.114 50.678ZM41.334 47.364C40.73 46.406 40.438 44.864 40.438 42.738C40.438 39.02 41.564 37.166 43.824 37.166C45.002 37.166 45.876 37.614 46.428 38.5C47.022 39.468 47.324 40.99 47.324 43.094C47.324 46.834 46.188 48.72 43.938 48.72C42.75 48.72 41.886 48.272 41.324 47.386L41.334 47.364ZM36.916 46.24C36.916 47.49 36.458 48.522 35.53 49.312C34.614 50.114 33.394 50.52 31.842 50.52C30.394 50.52 29.008 50.062 27.644 49.144L28.28 47.874C29.446 48.458 30.498 48.75 31.458 48.75C32.344 48.75 33.042 48.552 33.542 48.166C34.042 47.77 34.344 47.218 34.344 46.52C34.344 45.644 33.73 44.894 32.614 44.27C31.582 43.698 29.51 42.52 29.51 42.52C28.384 41.698 27.832 40.822 27.832 39.374C27.832 38.176 28.248 37.218 29.082 36.488C29.926 35.738 30.998 35.374 32.332 35.374C33.696 35.374 34.946 35.738 36.072 36.468L35.5 37.738C34.542 37.332 33.594 37.124 32.666 37.124C31.906 37.124 31.322 37.312 30.916 37.676C30.51 38.04 30.26 38.498 30.26 39.072C30.26 39.948 30.886 40.698 32.03 41.342C33.082 41.914 35.196 43.124 35.196 43.124C36.352 43.936 36.926 44.812 36.926 46.238L36.916 46.24ZM61.928 30.626C60.5 30.594 59.396 30.74 58.47 31.136C58.21 31.24 57.782 31.24 57.74 31.574C57.886 31.72 57.906 31.95 58.032 32.146C58.25 32.5 58.616 32.98 58.96 33.23C59.336 33.522 59.71 33.814 60.096 34.064C60.794 34.492 61.576 34.742 62.262 35.168C62.648 35.418 63.044 35.74 63.428 36.002C63.626 36.138 63.75 36.378 64 36.46V36.408C63.874 36.252 63.844 36.022 63.718 35.836C63.54 35.658 63.364 35.502 63.186 35.326C62.666 34.628 62.03 34.024 61.332 33.524C60.76 33.138 59.51 32.596 59.28 31.94L59.248 31.898C59.634 31.866 60.092 31.72 60.466 31.616C61.07 31.46 61.632 31.49 62.258 31.334C62.54 31.262 62.82 31.178 63.112 31.084V30.928C62.79 30.606 62.55 30.168 62.216 29.866C61.31 29.084 60.31 28.314 59.278 27.678C58.716 27.314 58.008 27.084 57.414 26.782C57.206 26.678 56.842 26.626 56.726 26.448C56.404 26.052 56.216 25.542 55.986 25.072C55.476 24.092 54.976 23.01 54.528 21.968C54.206 21.27 54.018 20.582 53.622 19.936C51.788 16.904 49.788 15.072 46.726 13.27C46.07 12.894 45.278 12.738 44.444 12.54C43.996 12.52 43.558 12.488 43.11 12.468C42.818 12.342 42.538 12.01 42.288 11.842C41.268 11.196 38.642 9.80999 37.902 11.644C37.422 12.81 38.61 13.946 39.028 14.53C39.33 14.946 39.716 15.406 39.934 15.864C40.06 16.176 40.09 16.5 40.216 16.822C40.498 17.604 40.768 18.478 41.144 19.208C41.342 19.584 41.55 19.978 41.8 20.312C41.946 20.51 42.196 20.594 42.248 20.916C41.998 21.28 41.978 21.812 41.842 22.25C41.196 24.27 41.446 26.76 42.352 28.25C42.644 28.698 43.32 29.678 44.228 29.302C45.03 28.98 44.854 27.968 45.082 27.072C45.134 26.854 45.102 26.718 45.208 26.572V26.614C45.468 27.114 45.718 27.594 45.948 28.094C46.49 28.97 47.458 29.876 48.26 30.48C48.688 30.802 49.02 31.356 49.552 31.552V31.5H49.51C49.396 31.344 49.25 31.27 49.104 31.146C48.782 30.824 48.426 30.428 48.166 30.074C47.426 29.074 46.76 27.97 46.176 26.834C45.884 26.272 45.634 25.668 45.406 25.116C45.302 24.908 45.302 24.584 45.124 24.48C44.854 24.866 44.458 25.198 44.27 25.688C43.926 26.448 43.894 27.396 43.76 28.376C43.698 28.396 43.728 28.376 43.698 28.418C43.126 28.272 42.928 27.688 42.718 27.188C42.176 25.918 42.092 23.886 42.552 22.428C42.678 22.052 43.208 20.876 43 20.522C42.886 20.178 42.532 19.98 42.344 19.71C42.104 19.376 41.864 18.95 41.698 18.574C41.27 17.574 41.062 16.47 40.594 15.47C40.386 15.012 40.01 14.532 39.708 14.106C39.364 13.626 38.99 13.284 38.728 12.72C38.634 12.522 38.51 12.2 38.656 11.99C38.688 11.844 38.76 11.792 38.906 11.75C39.136 11.552 39.802 11.802 40.032 11.916C40.688 12.176 41.24 12.426 41.792 12.802C42.042 12.98 42.312 13.312 42.636 13.406H43.012C43.584 13.532 44.22 13.438 44.752 13.604C45.7 13.906 46.554 14.344 47.324 14.822C49.658 16.312 51.574 18.416 52.876 20.926C53.094 21.332 53.188 21.708 53.386 22.134C53.75 23.02 54.22 23.904 54.594 24.748C54.968 25.592 55.324 26.446 55.864 27.144C56.134 27.52 57.198 27.716 57.686 27.904C58.04 28.07 58.592 28.216 58.904 28.404C59.518 28.78 60.122 29.206 60.696 29.622C60.988 29.82 61.874 30.268 61.926 30.622L61.928 30.626Z" fill="black"/>
</g>
<defs>
<clipPath id="clip0_25_537">
<rect width="64" height="64" fill="white"/>
</clipPath>
</defs>
</svg>
