<svg width="180" height="32" viewBox="0 0 180 32" fill="none" xmlns="http://www.w3.org/2000/svg">
<path d="M52.0152 22.8083L40.6811 6.02356H39.104V25.5954H40.6811V8.78318L52.0152 25.5954H53.5924V6.02356H52.0152V22.8083Z" fill="white"/>
<path d="M59.5718 25.5954H71.6678V24.0731H61.1352V16.5028H70.0373V14.9805H61.1352V7.54585H71.6678V6.02356H59.5718V25.5954Z" fill="white"/>
<path d="M89.0027 6.91352C87.6846 6.048 86.0511 5.61523 84.1036 5.61523C82.1562 5.61523 80.5196 6.048 79.197 6.91352C77.8743 7.77904 76.8777 8.97676 76.2072 10.5082C75.5368 12.0396 75.2015 13.8057 75.2015 15.808C75.2015 17.8103 75.5368 19.5779 76.2072 21.1093C76.8777 22.6408 77.8743 23.8385 79.197 24.704C80.5196 25.5695 82.1547 26.0023 84.1036 26.0023C86.0511 26.0023 87.6846 25.5695 89.0027 24.704C90.3208 23.8385 91.3158 22.6408 91.9863 21.1093C92.6568 19.5779 92.992 17.8118 92.992 15.808C92.992 13.8057 92.6568 12.0396 91.9863 10.5082C91.3158 8.97828 90.3208 7.77904 89.0027 6.91352ZM90.5189 20.3078C89.984 21.6122 89.1825 22.6347 88.1128 23.3722C87.0431 24.1112 85.7067 24.4754 84.1036 24.4663C82.5006 24.4663 81.1581 24.0975 80.0808 23.3585C79.0019 22.6194 78.1943 21.6 77.6549 20.3002C77.1154 19.0004 76.8549 17.5025 76.8732 15.808C76.8914 14.1135 77.1673 12.6126 77.7021 11.3021C78.237 9.99314 79.0354 8.97219 80.1006 8.23771C81.1657 7.50323 82.4991 7.14209 84.1036 7.14971C85.7067 7.14971 87.0431 7.51695 88.1128 8.2499C89.1825 8.98438 89.984 10.0038 90.5189 11.3082C91.0537 12.6126 91.3204 14.112 91.3204 15.8065C91.3204 17.504 91.0522 19.0034 90.5189 20.3078Z" fill="white"/>
<path d="M0.885315 16.0823C0.885315 23.0431 5.48418 28.928 11.808 30.8694C12.9249 31.2122 13.9185 30.0572 13.4278 28.9951L4.62323 9.94138C4.12951 8.87167 2.60265 8.89605 2.13789 9.97948C1.33179 11.8507 0.885315 13.914 0.885315 16.0823Z" fill="#C6C6C5"/>
<path d="M14.1334 0.775585C11.3082 1.18244 8.73145 2.3512 6.61487 4.06854C6.06478 4.51501 5.89259 5.28149 6.18973 5.92301L15.9177 26.9714V2.31311C15.9177 1.36378 15.0735 0.64149 14.1334 0.775585Z" fill="#848585"/>
<path d="M31.7897 16.2072C31.7897 9.08947 26.9775 3.09785 20.4297 1.3028C19.7212 1.10928 19.0233 1.64718 19.0233 2.38166V30.0312C19.0233 30.7657 19.7212 31.3036 20.4297 31.11C26.9791 29.3165 31.7897 23.3234 31.7897 16.2072Z" fill="#1CB7D5"/>
<path d="M176.113 9.20531C176.238 9.14589 176.34 9.0636 176.418 8.96151C176.55 8.78627 176.619 8.57598 176.619 8.33827C176.619 8.17522 176.588 8.02436 176.527 7.88874C176.465 7.7516 176.372 7.63579 176.248 7.54741C176.126 7.45751 175.974 7.3996 175.797 7.3737C175.756 7.36608 175.714 7.36151 175.669 7.35998C175.627 7.35846 175.59 7.35693 175.558 7.35693H174.267V10.3878H174.79V9.3196H175.579L176.133 10.3878H176.73L176.113 9.20531ZM174.79 7.83693H175.544C175.57 7.83693 175.601 7.83846 175.634 7.83998C175.665 7.84151 175.694 7.84608 175.724 7.8537C175.81 7.87046 175.88 7.90398 175.931 7.95274C175.986 8.00303 176.024 8.06093 176.049 8.12798C176.075 8.19655 176.087 8.26665 176.087 8.33827C176.087 8.40989 176.073 8.48151 176.049 8.55008C176.024 8.6156 175.985 8.67351 175.931 8.72379C175.878 8.77255 175.808 8.80608 175.723 8.82436C175.694 8.83046 175.665 8.83503 175.633 8.83655C175.599 8.8396 175.57 8.84112 175.544 8.84112H174.79V7.83693Z" fill="white"/>
<path d="M175.404 11.7196C173.833 11.7196 172.556 10.4426 172.556 8.87156C172.556 7.30051 173.833 6.02356 175.404 6.02356C176.974 6.02356 178.252 7.30051 178.252 8.87156C178.252 10.4426 176.975 11.7196 175.404 11.7196ZM175.404 6.59042C174.147 6.59042 173.123 7.61442 173.123 8.87156C173.123 10.1287 174.147 11.1527 175.404 11.1527C176.661 11.1527 177.685 10.1287 177.685 8.87156C177.685 7.61442 176.663 6.59042 175.404 6.59042Z" fill="white"/>
<path d="M109.941 7.58854C108.861 6.68187 107.541 6.1272 105.982 5.92759C105.527 5.87273 105.054 5.84073 104.567 5.83159C104.079 5.82244 103.753 5.81787 103.589 5.81787H97.3105V25.5116H103.589C103.753 25.5116 104.081 25.507 104.573 25.4979C105.065 25.4887 105.534 25.4567 105.981 25.4019C107.54 25.2007 108.859 24.6476 109.94 23.7409C111.02 22.8343 111.838 21.6777 112.395 20.2743C112.951 18.8708 113.228 17.3333 113.228 15.6647C113.228 13.9962 112.949 12.4602 112.395 11.0552C111.84 9.65178 111.022 8.4952 109.941 7.58854ZM109.326 18.6179C109.047 19.5565 108.617 20.355 108.034 21.0118C107.45 21.6685 106.693 22.083 105.763 22.2567C105.435 22.3207 105.059 22.3619 104.635 22.3802C104.212 22.3984 103.863 22.4076 103.589 22.4076H100.661V8.92187H103.589C103.861 8.92187 104.21 8.92949 104.635 8.94168C105.061 8.95387 105.435 8.99806 105.763 9.0712C106.674 9.24492 107.424 9.65025 108.012 10.2887C108.6 10.9272 109.036 11.715 109.318 12.6552C109.6 13.5939 109.742 14.5965 109.742 15.6647C109.743 16.6948 109.605 17.6792 109.326 18.6179Z" fill="white"/>
<path d="M146.819 15.8004C146.263 15.4087 145.684 15.1025 145.082 14.8845C144.48 14.6651 143.938 14.4929 143.454 14.3649L139.925 13.3805C139.479 13.2617 139.038 13.1139 138.606 12.9356C138.173 12.7573 137.81 12.5165 137.518 12.2103C137.225 11.9055 137.08 11.5108 137.08 11.0278C137.08 10.5173 137.251 10.0708 137.594 9.68683C137.935 9.30436 138.388 9.01026 138.949 8.80455C139.509 8.59883 140.117 8.50131 140.774 8.51045C141.449 8.52874 142.085 8.66588 142.682 8.92036C143.279 9.17636 143.785 9.54664 144.2 10.0358C144.614 10.5234 144.894 11.1146 145.041 11.8065L148.584 11.1908C148.291 9.97788 147.79 8.94321 147.08 8.08683C146.368 7.23045 145.484 6.57521 144.427 6.12416C143.369 5.67312 142.165 5.44302 140.817 5.43388C139.485 5.42474 138.275 5.63502 137.186 6.06321C136.096 6.4914 135.23 7.1375 134.587 7.99845C133.944 8.8594 133.623 9.92455 133.623 11.1924C133.623 12.0594 133.766 12.7863 134.054 13.3745C134.342 13.9626 134.711 14.4457 135.162 14.8236C135.613 15.2015 136.091 15.4986 136.597 15.712C137.103 15.9268 137.576 16.0975 138.013 16.2255L143.101 17.7295C143.465 17.8392 143.787 17.9687 144.066 18.1196C144.343 18.2705 144.571 18.4365 144.75 18.6194C144.928 18.8023 145.062 19.0095 145.154 19.2411C145.245 19.4743 145.291 19.7272 145.291 20C145.291 20.611 145.097 21.1261 144.71 21.5451C144.323 21.9642 143.819 22.2842 143.198 22.5021C142.578 22.7215 141.917 22.8297 141.216 22.8297C140.03 22.8297 138.984 22.5112 138.077 21.8727C137.17 21.2343 136.57 20.3322 136.279 19.1649L132.859 19.6845C133.061 20.9706 133.531 22.08 134.275 23.0141C135.019 23.9482 135.966 24.6674 137.12 25.1687C138.274 25.6701 139.57 25.9215 141.01 25.9215C142.022 25.9215 142.991 25.7935 143.916 25.539C144.841 25.2845 145.664 24.9005 146.385 24.3901C147.106 23.8796 147.677 23.2396 148.101 22.4685C148.524 21.6975 148.736 20.803 148.736 19.7805C148.736 18.7962 148.556 17.984 148.195 17.3455C147.834 16.7085 147.375 16.1935 146.819 15.8004Z" fill="white"/>
<path d="M164.325 5.81787V14.1043H154.997V5.81787H151.701V25.5116H154.997V17.1962H164.325V25.5116H167.607V5.81787H164.325Z" fill="white"/>
<path d="M125.594 5.81787H120.766L114.557 25.5116H117.949L119.293 21.2449H127.051L128.411 25.5116H131.803L125.594 5.81787ZM120.262 18.1668L123.148 9.00568L126.069 18.1668H120.262Z" fill="white"/>
</svg>
